/* XPM */
static char *bitcoin64[] = {
/* columns rows colors chars-per-pixel */
"64 64 200 2 ",
"   c #635231",
".  c #685635",
"X  c #735F39",
"o  c #796137",
"O  c #72603E",
"+  c #7C663E",
"@  c #7D6944",
"#  c #7D6D4C",
"$  c #81663A",
"%  c #846B3C",
"&  c #836C44",
"*  c #806F4E",
"=  c #877346",
"-  c #8C7043",
";  c #8E7846",
":  c #847249",
">  c #8C764B",
",  c #8D784D",
"<  c #957A46",
"1  c #927A4A",
"2  c #857552",
"3  c #8B7752",
"4  c #867856",
"5  c #8C7952",
"6  c #857758",
"7  c #877858",
"8  c #8C7D5A",
"9  c #927E53",
"0  c #907F5A",
"q  c #9C7F59",
"w  c #9F864F",
"e  c #958155",
"r  c #9A8254",
"t  c #9E8856",
"y  c #94835C",
"u  c #99855A",
"i  c #9D8A5D",
"p  c #A08955",
"a  c #A7855F",
"s  c #A48C5D",
"d  c #A88F5F",
"f  c #A6905F",
"g  c #A9915F",
"h  c #948561",
"j  c #988763",
"k  c #978962",
"l  c #9C8B64",
"z  c #978B6A",
"x  c #9B8D6A",
"c  c #9F906B",
"v  c #9F9375",
"b  c #9F9579",
"n  c #A28E62",
"m  c #A48B68",
"M  c #A69264",
"N  c #AB9564",
"B  c #AE9866",
"V  c #A5936B",
"C  c #AA966A",
"Z  c #AD9A6B",
"A  c #B09A67",
"S  c #B19C6C",
"D  c #A49673",
"F  c #A79974",
"G  c #AD9C73",
"H  c #A3977A",
"J  c #A59A7C",
"K  c #AB9D7A",
"L  c #B19E74",
"P  c #B89D76",
"I  c #AEA07B",
"U  c #B4A174",
"Y  c #B8A577",
"T  c #B4A37B",
"R  c #B9A67B",
"E  c #BAA97E",
"W  c #C1996F",
"Q  c #C79F75",
"!  c #C9A277",
"~  c #C9A77E",
"^  c #A79E82",
"/  c #AA9E82",
"(  c #ADA284",
")  c #AEA68A",
"_  c #B3A582",
"`  c #B6A984",
"'  c #BBAB83",
"]  c #B3A689",
"[  c #B4AA8B",
"{  c #BBAD8A",
"}  c #BFB087",
"|  c #BEB18C",
" . c #B6AE92",
".. c #BAAF91",
"X. c #BDB393",
"o. c #BDB69A",
"O. c #BFB89E",
"+. c #C7A780",
"@. c #C0AF85",
"#. c #C0AF8F",
"$. c #C1B087",
"%. c #C8B184",
"&. c #C1B28C",
"*. c #C2B693",
"=. c #C5B996",
"-. c #C8BA96",
";. c #C1B699",
":. c #C4BA9C",
">. c #C9BD9D",
",. c #D7BB91",
"<. c #E3BC8C",
"1. c #E8BE8E",
"2. c #E9BE90",
"3. c #C5BDA1",
"4. c #C9BFA1",
"5. c #DAC39F",
"6. c #E5C58C",
"7. c #E0C290",
"8. c #EAC194",
"9. c #E7CD94",
"0. c #EDC79C",
"q. c #E5C99E",
"w. c #EBCB9C",
"e. c #E7D097",
"r. c #E5D09E",
"t. c #C6C0A5",
"y. c #CBC2A4",
"u. c #C7C2A9",
"i. c #CDC6AA",
"p. c #CFC8AD",
"a. c #D3C5A4",
"s. c #D0C7AA",
"d. c #D1CAAE",
"f. c #DBCBAB",
"g. c #D6D1AF",
"h. c #D9D3AE",
"j. c #CCC7B1",
"k. c #CECAB2",
"l. c #D4CDB3",
"z. c #DECEB4",
"x. c #D6D0B6",
"c. c #D9D3B6",
"v. c #D7D2B8",
"b. c #DAD4BB",
"n. c #DDD9BE",
"m. c #E5CDA3",
"M. c #EECCA2",
"N. c #F0CFA6",
"B. c #EDD4A5",
"V. c #EBDAA4",
"C. c #E3D2AD",
"Z. c #ECD4AC",
"A. c #EDDDAC",
"S. c #F2D5AC",
"D. c #F0D9AF",
"F. c #E3D3B5",
"G. c #EBDAB5",
"H. c #E4D4BA",
"J. c #E3DABD",
"K. c #EEDEBC",
"L. c #F3D7B0",
"P. c #F3DCB4",
"I. c #F4DFBA",
"U. c #EEE0B4",
"Y. c #EFE0BD",
"T. c #F4E3BE",
"R. c #DCD7C0",
"E. c #DEDAC1",
"W. c #E1DCC5",
"Q. c #EADFC0",
"!. c #E1DECA",
"~. c #E6E0C4",
"^. c #EDE4C6",
"/. c #EDE9C7",
"(. c #E5E1CC",
"). c #EBE6C9",
"_. c #EDE8C8",
"`. c #F3E4C3",
"'. c #F8E4C3",
"]. c #F6E9C5",
"[. c #F8E9C7",
"{. c #F4E6C9",
"}. c #F6ECCB",
"|. c #F9EBCD",
" X c #F6F1CE",
".X c #F8F2CE",
"XX c #EEEDDC",
"oX c #F7ECD2",
"OX c #FAEED3",
"+X c #F7EFD8",
"@X c #F7F2D2",
"#X c #F9F3D3",
"$X c #FAF9D5",
"%X c #F5F3DC",
"&X c #FBF4DB",
"*X c #FCFADB",
"=X c #FCF6E0",
"-X c #FDFBE4",
";X c #FEFEEB",
":X c None",
/* pixels */
":X:X:X:X:X:X:X:X:X:X:X:X:X:X:X:X:X:X:X:X:X:X:X:X:X:X:X:X:X:X:X:X:X:X:X:X:X:X:X:X:X:X:X:X:X:X:X:X:X:X:X:X:X:X:X:X:X:X:X:X:X:X:X:X",
":X:X:X:X:X:X:X:X:X:X:X:X:X:X:X:X:X:X:X:X:X:X:X:X:X:X:X:X:X:X:X:X:X:X:X:X:X:X:X:X:X:X:X:X:X:X:X:X:X:X:X:X:X:X:X:X:X:X:X:X:X:X:X:X",
":X:X:X:X:X:X:X:X:X:X:X:X:X:X:X:X:X:X:X:X:X:X:X:X:X:X:X:X:X:X:X:X:X:X:X:X:X:X:X:X:X:X:X:X:X:X:X:X:X:X:X:X:X:X:X:X:X:X:X:X:X:X:X:X",
":X:X:X:X:X:X:X:X:X:X:X:X:X:X:X:X:X:X:X:X:X:X:X:X:X:X:X:X:X:X:X:X:X:X:X:X:X:X:X:X:X:X:X:X:X:X:X:X:X:X:X:X:X:X:X:X:X:X:X:X:X:X:X:X",
":X:X:X:X:X:X:X:X:X:X:X:X:X:X:X:X:X:X:X:X:X:X:X:X:X:X:X:X:X:X:X:X:X:X:X:X:X:X:X:X:X:X:X:X:X:X:X:X:X:X:X:X:X:X:X:X:X:X:X:X:X:X:X:X",
":X:X:X:X:X:X:X:X:X:X:X:X:X:X:X:X:X:X:X:X:X:X:X:X:X:X(.E.(.E.E.E.E.E.E.W.E.(.!.:X:X:X:X:X:X:X:X:X:X:X:X:X:X:X:X:X:X:X:X:X:X:X:X:X",
":X:X:X:X:X:X:X:X:X:X:X:X:X:X:X:X:X:X:X:X:X:X:X!.E.v.u.t.t.t.t.u.u.t.y.y.u.u.p.b.E.E.:X:X:X:X:X:X:X:X:X:X:X:X:X:X:X:X:X:X:X:X:X:X",
":X:X:X:X:X:X:X:X:X:X:X:X:X:X:X:X:X:X:X:X(.W.g.3.:.i.b.n.E.E.E.E.E.E.n.n.b.b.l.i.y.i.b.E.:X:X:X:X:X:X:X:X:X:X:X:X:X:X:X:X:X:X:X:X",
":X:X:X:X:X:X:X:X:X:X:X:X:X:X:X:X:X:X(.E.p.O.u.c.v.o.o.E.E.E.E.E.n.n.n.b.b.k.O. .O.x.u.k.x.R.:X:X:X:X:X:X:X:X:X:X:X:X:X:X:X:X:X:X",
":X:X:X:X:X:X:X:X:X:X:X:X:X:X:X:X:XE.p.o.i.n.n.b.k.U G 3.n.b.n.n.b.b.b.n.k._ k x N I v.b.j.p.x.E.:X:X:X:X:X:X:X:X:X:X:X:X:X:X:X:X",
":X:X:X:X:X:X:X:X:X:X:X:X:X:X:X!.v.O.t.c.b.b.b.b.u.U x I p.n.E.n.n.n.b.n.X.k u.b.o.k u.n.b.b.p.d.b.:X:X:X:X:X:X:X:X:X:X:X:X:X:X:X",
":X:X:X:X:X:X:X:X:X:X:X:X:X:XE.p.X.g.b.b.b.c.b.b.t.Z ^ G I l.b.b.b.b.b.b._ J b.n.b.v.b.n.R.R.b.v.d.b.:X:X:X:X:X:X:X:X:X:X:X:X:X:X",
":X:X:X:X:X:X:X:X:X:X:X:X:XR.y.O.g.v.c.c.v.v.v.v.O.Z k v F ] c.b.b.b.b.b.[ F u.l.k.b.b.b.b.b.b.b.v.p.x.v.:X:X:X:X:X:X:X:X:X:X:X:X",
":X:X:X:X:X:X:X:X:X:X:X:Xb.4.;.t.p.g.v.l.v.g.v.v.o.k p.g.O.3.b.v.c.c.v.c.p.V C I V k.b.v.b.b.b.v.v.v.p.x.x.:X:X:X:X:X:X:X:X:X:X:X",
":X:X:X:X:X:X:X:X:X:X:Xb.t.;.p.F K i.l.l.g.g.v.g.O. .c.g.j.k.k.k.k.k.k.j.p.d.[ (  .v.v.v.b.v.v.v.x.x.x.p.x.:X:X:X:X:X:X:X:X:X:X:X",
":X:X:X:X:X:X:X:X:X:Xb.y.X.d.d.X.M F u.l.l.l.g.x.k.u.u.g.E.E.E.E.n.E.E.E.n.l.j.j.v.g.g.v.l.l.l.l.3. .3.d.p.x.:X:X:X:X:X:X:X:X:X:X",
":X:X:X:X:X:X:X:X:X:Xa.[ 4.I I ) J l F t.g.g.g.u.k.R.b.R.b.E.R.R.R.R.R.R.R.R.R.v.j.p.g.l.l.l.p.[ j 0 i F p.i.d.:X:X:X:X:X:X:X:X:X",
":X:X:X:X:X:X:X:X:Xs.[ a.:.x f e k i N c s.y.u.b.b.b.b.b.b.b.b.b.b.b.R.R.b.b.R.R.b.x.y.d.l.d.O.i ^ j. .s [ p.d.d.:X:X:X:X:X:X:X:X",
":X:X:X:X:X:X:X:Xl.*.*.a.s.:.c V [ o.( O.t.p.c.c.v.v.v.v.v.v.v.v.x.v.v.v.b.v.x.v.v.v.v.u.d.d.[ y s.d.j.V H p.s.p.:X:X:X:X:X:X:X:X",
":X:X:X:X:X:X:X:Xy.[ y.y.y.y.>.x n  .i.3.d.l.x.x.x.x.x.x.x.x.v.x.x.x.x.x.x.x.x.x.x.b.v.v.i.i...t X.p.o.l ^ p.s.i.p.:X:X:X:X:X:X:X",
":X:X:X:X:X:X:Xs.` ;.4.a.4.y.y.4.x [ 3.p.l.l.l.l.l.x.l.l.l.l.x.v.x.l.l.l.l.x.l.l.x.l.x.x.x.y.4.l i V n 7 4.p.s.y.y.:X:X:X:X:X:X:X",
":X:X:X:X:X:X:X-._ >.>.>.4.4.4.>.>.:.t.d.d.d.d.o.[ i.d.d.d.l.d.d.l.k.l.l.l.l.l.l.i./ i.l.l.l.:.4.J z H >.y.i.s.i.i.i.:X:X:X:X:X:X",
":X:X:X:X:X:Xy.` *.>.>.>.>.4.4.>.>.o.i.p.p.p.i.J m.o.p.p.j.p.d.d.d.p.i.d.p.p.i.i.^ ,.3.p.d.d.s.O.4.4.y.4.y.y.y.y.y.4.:X:X:X:X:X:X",
":X:X:X:X:X:X=.K *.-.*.>.>.>.:.-.X.i.i.y.y.y.u.H 6.a.4.i.y.i.p.d.p.i.i.i.i.s.s. .' 2.:.i.d.d.s.y.:.4.4.a.4.4.y.y.4.4.4.:X:X:X:X:X",
":X:X:X:X:X:X{ _ *.{ _ ] *.:.:.;.o.>.t.t.4.y.3.G 8.r.;.4.y.y.i.y.s.4.u.y.y.y.3.H m.q.-.i.i.s.a.i.*.>.>.>.>.>.t.>.4.>.>.:X:X:X:X:X",
":X:X:X:X:X>.T | J u = 5 l [ ;...:.t.>.>.4.3.[ %.9.e.C.X.4.t.4.4.4.4.4.4.4.4.H 5.m.m.>.-.y.y.y.y.>.*.-.>.-.-.>.>.>.>.>.:X:X:X:X:X",
":X:X:X:X:X*.I _ u 6 [ K 9 j *.[ =.;.:.=.:.:.H m.V.V.A.t./ b ^ ( ] ( / J / / [ Z.C.Z.f.X.>.>.>.>.>.{ >.*.=.*.#.] [ -.-.:X:X:X:X:X",
":X:X:X:X:X#.G K > F #...x > [ ..;.;.o.;.X.*.H B.V.A.U.G.f.T.T.'.{.'.'.`.z.4.G.G.G.G.G.X.>.>.>.>.>.#.*.' G n u 1 3 -.*.*.:X:X:X:X",
":X:X:X:X:X' L I > y ' _ j 4 _ ..X.*.*.X.X.../ L.G.Y.`.`.{.].|.|.oXoX}.{.'.K.K.K.Y.Y.Y.=.-.-.-.-.-.=.' , = 5 j K @.*.&.*.:X:X:X:X",
":X:X:X:X:XT I ` y > 0 y & V _ ..| ....| *.J >.K.K.`.^.{.oXoXOXOXOXoXoX{.^.'.`.`.`.`.`.y.| *.&.*.*.&.` } $.&.*.&.&.&.&.*.:X:X:X:X",
":X:X:X:X:XI T ` T z 4 7 F ' K { { { { | _ H Q.Q.`.{.{.oXoX+X&X+X&X&XoX}.}.}.{.{.}.}.}._.K | | $.$.$.T $.$.@.$.$.&.&.$.&.:X:X:X:X",
":X:X:X:X{ F T T T _ _ _ ' { K { [ ' [ _ v Q.`.`.{.{.{.oX+X+X=X=X=X&X@XoX}.}.}..X.X@X@X$XE.T $.$.$.' T @.@.@.@.@.@.$.' @.:X:X:X:X",
":X:X:X:X' F L I T U ( T ` ' J ` ` ] _ z F.Y.`.'.{.>.[ {.#X%X=X-X-X&X@X.X@X@X@Xh.{  X$X$X$Xl.E ' E } T E E ~ ' } E } E E :X:X:X:X",
":X:X:X:X_ V L K L I T T T _ F T T T I ..`.`.`.].f.( _..X@Xn.~.$X-X&X@X@Xg. X$X$Xh.=.$X*X*X*X` E E E U E E E E E E E ~ E :X:X:X:X",
":X:X:X:X:XC Z L G L K K K T D T T T x K.}.}.}..X_.oX#X*X*Xc.| -X=X-X*X).` @X*X*X$X@X$X$X*X$Xy.Y R R U E E R E E E R Y R :X:X:X:X",
":X:X:X:X:XV V G G G L U K K V L I I H #X#X#X&X&X*X*X-X-X-X;XX.] ] [ [ I E.-X*X*X*X*X$X$X$X$Xh.U Y Y F G Y T Y T R R U Y :X:X:X:X",
":X:X:X:X:XV M C S F G F l j V G G L ( *X-X-X;X-X;X;X;X;X;X;X).| @X%X!.| -X-X-X-X*X$X#X$X.X.X:.G U Y V e r i B U Y Y S Y :X:X:X:X",
":X:X:X:X:XC n C V Z l 9 + 3 l F S C ( ;X;X;X;X;X;X;X;X;X;X-X*X-.b.-X .(.;X;X-X*X*X&X#X.X X}.[ S S U Z k , % < r u U S L :X:X:X:X",
":X:X:X:X:XC s C n 0 & . 2 k V n C C v ;X;X;X;X;X;X;X;X;X-X*X$X].` l...-X;X-X-X-X&X&XOX.X}.}.x Z S B Z V c t 1 % e S S S :X:X:X:X",
":X:X:X:X:XC l m > % $ & & - 3 l C C l XX;X;X;X;X;X;X-X-X$X$X$X.X>.F ^.&X=X&X-X*X&X#XOX.X{.J.V S Y V i w = @ u Z S Z S :X:X:X:X:X",
":X:X:X:X:X:Xn n i & 3 # & X j n M C B ;.;X;X;X;X-X-X&X#X#X}..X.XT.*..X#X&X&X&X&XOXOXOX|.{.*.N S G Z e = ; t t i S Z S :X:X:X:X:X",
":X:X:X:X:X:XM s n n e &   0 q u i N N n !.-X-X=X&X&X#X.X].].T.T.].].[.}.OXOXOXOXOXOXOX|.c.B Z S V S S Z V e 1 , Z N B :X:X:X:X:X",
":X:X:X:X:X:XN p f 9 - % & o + 3 n n N N C W.=X&X#X.X].T.I.I.U.U.P.T.T.'.'.'.|.|.|.|.|.H.G C B L Z Z S S A Z A Z N N :X:X:X:X:X:X",
":X:X:X:X:X:X:Xn a u $ & 9 M N N N i M N B m :.^.{.`.I.D.N.B.N.N.N.S.L.P.I.'.'.'.'.T.f.G N C T V S S Z S A A A B N C :X:X:X:X:X:X",
":X:X:X:X:X:X:Xd p d f N N N N N N M s A B B s x #.Z.B.M.0.9.0.0.w.M.N.S.S.L.L.P.F.#.m S C U V S Z B Z A B A B C C C :X:X:X:X:X:X",
":X:X:X:X:X:X:X:Xa p s M g N N N N B M N B B B N i 5 m +.<.1.1.1.8.8.0.w.M.m.5.' C C Z S T F B Z C C C B B N N M N :X:X:X:X:X:X:X",
":X:X:X:X:X:X:X:Xs s d g N g N g N N B d C S S B A S N u 5 q s P ! ! +.P G G V S L P L R F N Z Z C N B B B N M N :X:X:X:X:X:X:X:X",
":X:X:X:X:X:X:X:X:Xa d g g N g N A A B N f C U P P L L L L U U L S G L T P T T T T T { F B C Z C C B N B N N f M :X:X:X:X:X:X:X:X",
":X:X:X:X:X:X:X:X:Xd g g N g B N B B B B g f V R R R R E R E E E E ' ` ' ` ' ' _ | _ n M V N C N N N N B C f f :X:X:X:X:X:X:X:X:X",
":X:X:X:X:X:X:X:X:X:Xg g N B A A A A B B B N N f K } &.| } } | | { { } { ' { *.{ F M V C N C C N N N N N f N f :X:X:X:X:X:X:X:X:X",
":X:X:X:X:X:X:X:X:X:X:XM N A A A S A A A B A A N N M L E | =.-.X.&.=.>.*.[ _ V N N B V C N Z Z B A C C M f M :X:X:X:X:X:X:X:X:X:X",
":X:X:X:X:X:X:X:X:X:X:X:XA A S P S S S A A A A B V c Z Z F N S I I G C V C Z Z M y Z Z C S G L G S Z C M V :X:X:X:X:X:X:X:X:X:X:X",
":X:X:X:X:X:X:X:X:X:X:X:X:XS S Y U Y U G U S Y n e y l U U V V S L U V S G G G x * G L L L P U L L Z C Z :X:X:X:X:X:X:X:X:X:X:X:X",
":X:X:X:X:X:X:X:X:X:X:X:X:X:XU U Y Y Y E Y Y Y T G h k I x 4 4 V T I 8 h T T U y O k U T T T T U F Z F :X:X:X:X:X:X:X:X:X:X:X:X:X",
":X:X:X:X:X:X:X:X:X:X:X:X:X:X:XR Y U R E E E E D 4 h E E 4 E x h ' T x y T T T # # @ T T E T T G I G :X:X:X:X:X:X:X:X:X:X:X:X:X:X",
":X:X:X:X:X:X:X:X:X:X:X:X:X:X:X:XT E E ' ' { F # y I { E # } x x ' } H 0 ' ' ` h D 8 ` ' _ T T T :X:X:X:X:X:X:X:X:X:X:X:X:X:X:X:X",
":X:X:X:X:X:X:X:X:X:X:X:X:X:X:X:X:X:XE ' E ` | ` D K | | 3 D 6 _ | &._ y | | | | | | { _ T ` _ :X:X:X:X:X:X:X:X:X:X:X:X:X:X:X:X:X",
":X:X:X:X:X:X:X:X:X:X:X:X:X:X:X:X:X:X:X:X{ | { ' | | *.*.` z ( *.*.=.X._ =.=.*.X.{ [ ' { ] :X:X:X:X:X:X:X:X:X:X:X:X:X:X:X:X:X:X:X",
":X:X:X:X:X:X:X:X:X:X:X:X:X:X:X:X:X:X:X:X:X:X| | | | | | X.=.-.=.=.=.=.X.| { { ` { { { :X:X:X:X:X:X:X:X:X:X:X:X:X:X:X:X:X:X:X:X:X",
":X:X:X:X:X:X:X:X:X:X:X:X:X:X:X:X:X:X:X:X:X:X:X:X:X| *.*.*.o.*.X...X.| ..X.X...| :X:X:X:X:X:X:X:X:X:X:X:X:X:X:X:X:X:X:X:X:X:X:X:X",
":X:X:X:X:X:X:X:X:X:X:X:X:X:X:X:X:X:X:X:X:X:X:X:X:X:X:X:X:X:X:X:XX.:X:X:X:X:X:X:X:X:X:X:X:X:X:X:X:X:X:X:X:X:X:X:X:X:X:X:X:X:X:X:X",
":X:X:X:X:X:X:X:X:X:X:X:X:X:X:X:X:X:X:X:X:X:X:X:X:X:X:X:X:X:X:X:X:X:X:X:X:X:X:X:X:X:X:X:X:X:X:X:X:X:X:X:X:X:X:X:X:X:X:X:X:X:X:X:X",
":X:X:X:X:X:X:X:X:X:X:X:X:X:X:X:X:X:X:X:X:X:X:X:X:X:X:X:X:X:X:X:X:X:X:X:X:X:X:X:X:X:X:X:X:X:X:X:X:X:X:X:X:X:X:X:X:X:X:X:X:X:X:X:X",
":X:X:X:X:X:X:X:X:X:X:X:X:X:X:X:X:X:X:X:X:X:X:X:X:X:X:X:X:X:X:X:X:X:X:X:X:X:X:X:X:X:X:X:X:X:X:X:X:X:X:X:X:X:X:X:X:X:X:X:X:X:X:X:X"
};
