/* XPM */
static char *bitcoin32[] = {
/* columns rows colors chars-per-pixel */
"32 32 162 2 ",
"   c #5A4927",
".  c #5A4C2B",
"X  c #6B542E",
"o  c #6B5A38",
"O  c #735F37",
"+  c #7D6234",
"@  c #706344",
"#  c #7C6C47",
"$  c #7A674E",
"%  c #776A4A",
"&  c #7F6E4A",
"*  c #7F714B",
"=  c #756D57",
"-  c #7D7254",
";  c #846738",
":  c #866A3D",
">  c #826F4D",
",  c #917442",
"<  c #977D47",
"1  c #997E4A",
"2  c #8D7C53",
"3  c #827559",
"4  c #867A5A",
"5  c #8E7B5A",
"6  c #907F5C",
"7  c #9A7E58",
"8  c #887D61",
"9  c #9C814B",
"0  c #938057",
"q  c #998254",
"w  c #9D8956",
"e  c #95845A",
"r  c #99855C",
"t  c #9E895D",
"y  c #A18851",
"u  c #A38C5D",
"i  c #A5905F",
"p  c #A9905F",
"a  c #8F8363",
"s  c #88816A",
"d  c #9D8C62",
"f  c #908669",
"g  c #948B6F",
"h  c #9F8F6B",
"j  c #938D71",
"k  c #9E8C72",
"l  c #9D9476",
"z  c #9B947C",
"x  c #A18E63",
"c  c #A08E6B",
"v  c #A79263",
"b  c #AB9564",
"n  c #AD9966",
"m  c #A3926B",
"M  c #AA966A",
"N  c #AD9A6B",
"B  c #B09967",
"V  c #B19C6C",
"C  c #A39574",
"Z  c #A69A71",
"A  c #AC9C73",
"S  c #A49678",
"D  c #A59B79",
"F  c #AD9F7A",
"G  c #B19E72",
"H  c #AEA17E",
"J  c #B4A274",
"K  c #B9A477",
"L  c #B4A47B",
"P  c #B9A67B",
"I  c #B7A87F",
"U  c #BAA97D",
"Y  c #A19C86",
"T  c #AAA081",
"R  c #ABA48A",
"E  c #B4A684",
"W  c #B9A780",
"Q  c #B6A984",
"!  c #BCAB84",
"~  c #B7AA88",
"^  c #BAAC89",
"/  c #BFB087",
"(  c #BEB18C",
")  c #B7AE93",
"_  c #B9AF91",
"`  c #B4AF98",
"'  c #BDB392",
"]  c #BEB69A",
"[  c #BDB8A3",
"{  c #C0AF85",
"}  c #C1B186",
"|  c #C2B38E",
" . c #C2B593",
".. c #C3B897",
"X. c #C8BA94",
"o. c #C2B799",
"O. c #C5BA9A",
"+. c #C9BD9C",
"@. c #C6BEA2",
"#. c #C9BFA1",
"$. c #C4BEA8",
"%. c #E2C594",
"&. c #EAC395",
"*. c #E6C991",
"=. c #E9CB9C",
"-. c #E8D097",
";. c #CBC2A4",
":. c #CEC5A9",
">. c #CFC8AC",
",. c #D0C7AA",
"<. c #D1CAAD",
"1. c #CCC8B0",
"2. c #D2C5B0",
"3. c #D4CDB3",
"4. c #D6D1B6",
"5. c #D9D3B7",
"6. c #D7D1B9",
"7. c #DAD5BB",
"8. c #DCD8BE",
"9. c #E7CEA6",
"0. c #ECCDA3",
"q. c #E1CDAC",
"w. c #EDD5A6",
"e. c #EFD5AB",
"r. c #ECDCAA",
"t. c #F2D3AA",
"y. c #EBD7B4",
"u. c #E0D8BB",
"i. c #ECDCB8",
"p. c #F2DBB2",
"a. c #F4DFBD",
"s. c #EFE1B6",
"d. c #F3E3BD",
"f. c #DCD7C0",
"g. c #DEDAC1",
"h. c #E0DAC3",
"j. c #ECDCC1",
"k. c #E7DDCD",
"l. c #E4E1CE",
"z. c #EDE5CB",
"x. c #F3E4C3",
"c. c #F8E4C4",
"v. c #F5E8C2",
"b. c #F8E8C7",
"n. c #F3E6CA",
"m. c #F6ECCC",
"M. c #FAEBCE",
"N. c #F7F2CF",
"B. c #F8F2CF",
"V. c #E6E2D3",
"C. c #E8E6D6",
"Z. c #F7EAD2",
"A. c #FAEED3",
"S. c #F7F3D2",
"D. c #FAF4D4",
"F. c #FAF9D6",
"G. c #FCF5DC",
"H. c #FCFADB",
"J. c #F5F3E1",
"K. c #FDFBE4",
"L. c #FFFEEC",
"P. c None",
/* pixels */
"P.P.P.P.P.P.P.P.P.P.C.8.7.H ] ] ) T 8.8.V.P.P.P.P.P.P.P.P.P.P.P.",
"P.P.P.P.P.P.P.P.8.@.5.4.g.g.g.g.8.5.8.4.3.4.8.P.P.P.P.P.P.P.P.P.",
"P.P.P.P.P.P.l.@.5.5.8.K J g.g.8.7.7.v ` n 8.8.6.P.P.P.P.P.P.P.P.",
"P.P.P.P.P.4.] 7.5.5.8.B ] z 8.7.5.$.1.8.7.8.8.8.@.f.P.P.P.P.P.P.",
"P.P.P.P.3.3.3.4.3.4.5.V 7.Y 7.6.4.5.n ) 6.7.8.6.6.6.6.P.P.P.P.P.",
"P.P.P.3.,.<.B <.3.3.4.<.R g.g.g.g.8.[ 4.3.4.4.3.3.3.<.3.P.P.P.P.",
"P.P.7.' P n Q n 3.<.6.f.7.7.7.7.8.8.8.8.R 3.3.<.w = a :.P.P.P.P.",
"P.P.~ ;.,.i ] ;.6.6.6.6.6.7.7.6.4.7.6.6.6.6.<.j <.3.w <.<.P.P.P.",
"P.+.+.#.;.:.2 3.3.3.3.3.3.3.4.6.3.3.3.4.4.4.4.;.w ^ s ,.,.;.P.P.",
"P.h +.+.+.#.+.,.<.>.z $.>.:.1.<.>.>.2.<.q.>.<.<.;.;.;.,.;.;.P.P.",
":.|  .+.O.O.) :.:.;.k =.:.:.>.>.>.:.,.l %.,.>.,.R +.#.+.#.+.P.P.",
"( ' 9 q g o.@.+.;.;.*.-.l #.;.;.@.;.#.9.9._ ;.;.;.+.X.+.+.+.+.P.",
"L 3 ^ ( 1 S o.o.] ' w.r.s.d.x.b.x.a.2.y.y.#.+.;.+.X.^ D ,  . .P.",
"d L r 8   ( ' ' ^ l i.j.b.A.A.A.m.x.x.j.x.i. .| | H L | | | | P.",
"F L E Q W ^ ~ E ~ j.x.n.m.A.J.G.D.m.m.m.m.N.A ! { { } } / } ! P.",
"A L J T Q Q E ^ z.d.x.m.z.S.G.K.S.N.N.' F.F.H.! { { U ! ! { K P.",
"x L G H L L L C n.m.B.S.F.H.m H.K.4 H.H.H.H.F.C P | P P P P J P.",
"5 N N A 4 M A - H.H.K.L.L.L.8.H.L.J.K.H.F.D.N.j J t < e K K K P.",
"x M r : m 5 A 2 L.L.L.L.L.K.H.P Z L.L.H.G.S.Z.- n J J % 9 J J P.",
"b M + X : M M N L.L.L.L.H.D.B.B.D.G.H.G.D.A.n.N J # 9 2 V N N P.",
"v i v ; > M t n 5 K.K.G.Z.v.d.d.b.M.Z.Z.A.M.j.N > J G b   b P.P.",
"P.i 7 o v b b v B e Z.x.p.e.w.e.p.a.c.c.c.k.B G n G V b B V P.P.",
"P.u t v b b b p B v v $ =.&.&.&.0.t.t.{ x N N V N n n b N t P.P.",
"P.P.u u p p n b i G B N N x > q r u N G L G B N N n B n b P.P.P.",
"P.P.p p b B B B p p } U U P ! U I I W W >.v b M b n n u P.P.P.P.",
"P.P.P.b b B V B n b n b ..| ( ^ | ] f V M v N B n N i d P.P.P.P.",
"P.P.P.P.V J J J G G e * J V V N J A J h A G G L G m M P.P.P.P.P.",
"P.P.P.P.P.K K K P P P C L . % P m L L c $ L L L m N P.P.P.P.P.P.",
"P.P.P.P.P.P.A U ! / O D ! a 3 / ^ / W H @ ^ L L P.P.P.P.P.P.P.P.",
"P.P.P.P.P.P.P.P.^ / ! ( ' D ^ .. .+...' Q ^ H P.P.P.P.P.P.P.P.P.",
"P.P.P.P.P.P.P.P.P.P.E |  .^ ~ Q ~ ^ .. .P.P.P.P.P.P.P.P.P.P.P.P.",
"P.P.P.P.P.P.P.P.P.P.P.P.P.P.P.P.P.P.P.P.P.P.P.P.P.P.P.P.P.P.P.P."
};
